<svg id="Calque_1" data-name="Calque 1" xmlns="http://www.w3.org/2000/svg" xmlns:xlink="http://www.w3.org/1999/xlink" viewBox="0 0 1440 270.84"><defs><style>.cls-1{fill:url(#Dégradé_sans_nom_11);}</style><linearGradient id="Dégradé_sans_nom_11" x1="720" y1="288.21" x2="720" y2="17.37" gradientUnits="userSpaceOnUse"><stop offset="0" stop-color="#604d8e" stop-opacity="0.9"/><stop offset="0.21" stop-color="#604d8e" stop-opacity="0.93"/><stop offset="1" stop-color="#604d8e"/></linearGradient></defs><title>footer-v2</title><path class="cls-1" d="M0,124.09V288.21h1439.9V65.51a17.3,17.3,0,0,1,0-2.39,8.53,8.53,0,0,0-2.14-6.62,24.05,24.05,0,0,1-3-4.29c-1.82-3.87-4.8-5.29-8.92-5.06-1.54.09-3.2.46-4.75-.58.17-1.54.44-3.09.49-4.65.11-3-.32-3.27-3.21-2.79-1.57.26-3.17.27-4.76.42-4.27.42-8.58.62-12.8,1.36a49.26,49.26,0,0,1-9.07.36c-1.4,0-2-.85-1.4-2.3,1.11-2.69.42-5-1-7.27-1.09-1.77-2.31-3.46-3.33-5.25-1.82-3.19-4.17-5.58-7.93-6.41a16.13,16.13,0,0,1-3.89-1.86,5.48,5.48,0,0,0-4.62-.51,21.34,21.34,0,0,1-5.18.76c-4.75.54-10-.31-13.37,4.44-.17.23-.55.31-.83.46a74.41,74.41,0,0,1-13.59,6,7.94,7.94,0,0,1-5.58,0,20.44,20.44,0,0,0-8.93-1.3c-1.92.08-3.84,0-5.76,0a10.94,10.94,0,0,1-6-1.38c-4.21-2.37-8.82-3.65-13.46-4.88a19,19,0,0,0-5.7-.48c-2.5.11-3.31,1.37-2.49,3.87s1.71,4.82,2.66,7.18a6.87,6.87,0,0,1,.5,4.22c-.48,2-1,4-1.68,6-1,2.89-1.88,3.59-4.81,3.69-2.08.06-4.17.11-6.24,0-7.52-.48-14.93,1.51-22.45,1.08a9.44,9.44,0,0,0-1.87.34c-5.35.83-10.69,1.75-16.14,1.56-3.65-.13-6.64-2.06-9.84-3.42-.75-.32-1-1.21-1.16-2a10.18,10.18,0,0,0-3.36-5.14c-.91-.8-1.95-1.32-3-.64-2.11,1.31-4.49,1.6-6.84,1.95-3.06.45-5.92,1.15-7.89,3.81-.27.36-.81.51-1.22.76a35,35,0,0,0-7.72,6.39,17.43,17.43,0,0,1-14.12,5.87c-4.36-.23-8.52,1.24-12.85,1.15a9.75,9.75,0,0,0-3.21.88c-1.63.57-1.94,1-1.57,2.85.21,1,.62,2.05-.21,2.68-2.25,1.74-4.23,3.9-7,4.86A169.08,169.08,0,0,1,1137,75c-6.08,1.22-12.13,2.62-18.26,3.49-5.82.83-11.53,2.56-17.49,2.3a3.59,3.59,0,0,0-3.61,1.76,6.21,6.21,0,0,1-5.23,3c-4.48.1-9,0-13.44,0a1.79,1.79,0,0,1-1.79-1.29c-1.18-3.34-3.63-5.92-5.4-8.9a4.3,4.3,0,0,0-1.44-1.22c-2-1.26-3-1.2-4.7.4s-3.19,3.15-4.77,4.73a8.26,8.26,0,0,1-6.47,2.57c-2.71-.12-5.44-.08-8.15,0a29.92,29.92,0,0,1-13.14-2,19.67,19.67,0,0,0-3.21-.93c-4-.95-8.12-1.51-12.2-2.2a41,41,0,0,0-11.27-.75c-2.71.28-5,.89-6.42,3.41a5,5,0,0,1-4.84,2.47c-6.24-.1-12.48,0-18.72-.1a9.26,9.26,0,0,1-2.83-.38,12.59,12.59,0,0,0-4.75-.48c-7.36.48-14.61-1.26-22-1.1-2,0-4.06-.7-6.08-1.1a1.1,1.1,0,0,1-.5-1.58,16,16,0,0,1,3.94-3.44c2.64-1.92,3.32-4.46,2.28-7.57-1.51-4.54-3.54-6.2-8.44-6.31-3.17-.07-6.39-.5-9.52.6a2.78,2.78,0,0,1-1.88.09c-2.73-1.28-5.32.36-8,.25a1.68,1.68,0,0,0-1.86,1.76c0,3.17-1.77,5.38-4,7.36-.6.54-1.16,1.11-1.73,1.67-3.25,3.21-3.24,3.21-4.72,6.91a92.37,92.37,0,0,1-18.73-3.15c-2.28-.63-4.2-1.12-5-3.68-.32-1-1.41-1.71-2.19-2.5a26.73,26.73,0,0,0-5.5-3.81c-2.31-1.37-4.92-2.23-7.23-3.49a50.56,50.56,0,0,1-10.22-7,16.46,16.46,0,0,0-3.13-2.19,23.86,23.86,0,0,0-13.72-3.42c-7.72.44-15.19-1.17-22.6-3.18a34.32,34.32,0,0,0-11.3-1.61c-1.28.09-2.13.5-2.31,1.9a9.16,9.16,0,0,1-3.69,6c-1,.81-2.13,1.43-3.06,2.28-1.82,1.66-3.46,1.65-5.59.34a12.79,12.79,0,0,0-11.5-1.06,12.29,12.29,0,0,1-3.66,1,12.49,12.49,0,0,0-5.85,2c-3.89,2.19-7.73,4.47-11.61,6.68-9,5.15-18,10.33-27,15.41-2.77,1.56-5.64,3-9,3q-14.4-.06-28.8,0a14,14,0,0,1-4.67-.87c-.68-.22-1.16-.52-1.08-1.28.22-2-1-2.55-2.59-2.67a10,10,0,0,0-6,1.1,40,40,0,0,1-7.1,2.83c-5.08,1.78-9.8.75-14.14-2A194.11,194.11,0,0,0,642,69.17c-5.44-2.7-10.88-5.39-16.29-8.16-7.82-4-15.85-7.57-23.91-11.06a5.06,5.06,0,0,0-4.52,0c-3.49,1.56-7,3-10.64,4.32-5.24,1.9-10.49,3.87-16.25,3.51-1.94-.11-3.7-.23-5.37-1.54a20.63,20.63,0,0,0-5.62-2.61,7.73,7.73,0,0,0-6.89.46,33.19,33.19,0,0,1-7.61,2.79c-7.23,2-14.63,3-22,4.54a16.23,16.23,0,0,1-3.82.11c-.92,0-1.58-.59-1.24-1.55,1.23-3.5-.58-5.83-2.92-8-1.26-1.15-2.17-1.37-3.4-.27-2,1.84-4.64,2-7,2.8a2.69,2.69,0,0,1-3-.81,24.65,24.65,0,0,0-5.3-4.08,11.83,11.83,0,0,0-6.06-2.09c-1.1,3.66-2.25,5.29-4.9,7a7.06,7.06,0,0,1-1.27.68,4.17,4.17,0,0,0-2.71,3.13c-.33,1.91-1.58,3.1-2.84,4.33-1.92,1.88-1.95,1.89-4.32.12a4.59,4.59,0,0,0-2.51-1.28c-2-.08-3.19-1.29-4.06-2.93A12.82,12.82,0,0,0,464,54.78c-3.13-2.51-6.21-2.64-9.12,0a39.21,39.21,0,0,1-6.65,4.63A21.53,21.53,0,0,0,445,61.56c-4.62,3.91-9.21,7.87-13.8,11.82-1.08.93-2.05,2.05-3.68,1.91a3.58,3.58,0,0,1-.34-.9c-.07-1.46-.12-2.84-1.77-3.59a4.62,4.62,0,0,0-4.57.19,25.05,25.05,0,0,0-2.79,1.86A13.87,13.87,0,0,1,407.39,76c-1.24-.14-2.66.37-3.65-.68-.84-.87-.38-2.14-.58-3.21-.42-2.3-1.94-4-3.37-5.67-1.2-1.41-2.92-1-4.5-1a39.86,39.86,0,0,1-7.6-.68,25.64,25.64,0,0,0-8.11-.09c-4.09.53-8.13,1.47-12.18,2.28a22.33,22.33,0,0,1-8.58.1c-5.46-1-10.89-2.3-16.3-3.58a44.34,44.34,0,0,0-16.6-.33c-4.56.64-9.09,1.65-13.77,1.4-3.51-.18-7-.17-10.55,0a45.28,45.28,0,0,1-17.82-2.88l-6.28-2.34c-2.89-1.08-5.63-1.77-8.21,1-1.27,1.36-3.2,2.09-4.72,3.24A20,20,0,0,1,258.92,66a5,5,0,0,1-4.15-.46,8,8,0,0,1-3.16-2.85c-1.3-2-2.64-4-4-6a16.3,16.3,0,0,0-6.38-5.63,36.2,36.2,0,0,0-16.11-3.93c-3.2-.05-6.4,0-9.6,0a11,11,0,0,1-4.27-.41c-2.47-1-4.73-.37-6.83,1-2.82,1.8-5.62,3.65-8.37,5.56-3.14,2.18-6.29,4.36-9.31,6.7-3.42,2.64-6.89,2.83-10.68.89a28.92,28.92,0,0,0-6.78-2.27A78.34,78.34,0,0,0,158,56.74c-2.45-.2-4.39-.89-5.58-3.61-1.38-3.16-4.82-3.81-7.88-4.66-2.81,1.19-6,.11-8.83,1.81-2,1.21-2.68,1-4-1a6.39,6.39,0,0,0-7.51-2.86c-5.88,1.76-12,1.51-17.94,2.54a34.68,34.68,0,0,0-13.39,4.8c-3.34,2.18-6.55,4.54-9.84,6.8a14.26,14.26,0,0,1-2.45,1.48c-2.45,1.08-4.1.65-5.75-1.61a11.14,11.14,0,0,0-5-4.27,2.64,2.64,0,0,0-2.7.38,17.71,17.71,0,0,0-3.34,4c-1.89,2.58-4.41,2.59-6.38.14-.9-1.11-1.63-2.37-2.44-3.55a15.23,15.23,0,0,0-1.37-2c-3.11-3.28-6.17-2-8.15,1.32a11.33,11.33,0,0,0-1,2.71C43.94,61.08,43.6,63,43,64.78c-1.14,3.16-2.65,5.36-7.28,4.08-3.07-.85-6.18-1.55-9.3-2.15a22.63,22.63,0,0,0-9.52,0,109.58,109.58,0,0,0-12,3.33c-5.51,2-4.85.91-4.86,7Q0,100.57,0,124.09Z" transform="translate(0 -17.37)"/></svg>