<svg id="Calque_1" data-name="Calque 1" xmlns="http://www.w3.org/2000/svg" viewBox="0 0 277.52 141.6"><defs><style>.cls-1{fill:#604d8e;}</style></defs><title>logo-violet</title><path class="cls-1" d="M35.34,46.11h6.27v4h.21c2.06-3,4.22-4.64,7.78-4.64a7.24,7.24,0,0,1,6.27,3.67c1.84-2.27,4-3.67,6.92-3.67,5.51,0,8,4.1,8,8.86V105h-6.7V56.59c0-3.25-.86-5.08-3.35-5.08-2.7,0-4.32,2.48-4.32,5.4V105h-6.7V56.59c0-3.25-.86-5.08-3.35-5.08-2.7,0-4.32,2.48-4.32,5.4V105h-6.7Z"/><path class="cls-1" d="M94.44,55.83c0-3.57-1.19-5-3.89-5-3.78,0-4.32,2.27-4.32,5.73V62.1h-6.7V55.18c0-6,5.08-9.72,11.24-9.72,6.48,0,10.37,2.7,10.37,10.26V105H94.87v-3.13h-.21a8.86,8.86,0,0,1-7.78,3.78c-5.19,0-8-3.78-8-9.72v-16c0-7.35,5-11.35,15.56-11.35Zm0,18.15c-3.46,0-8.86,1.41-8.86,6.38v13.4c0,4.21.65,6.48,4.22,6.48,2.91,0,4.64-2.16,4.64-6Z"/><path class="cls-1" d="M108.92,46.11h6.26v4h.22a9.32,9.32,0,0,1,7.78-4.64c5.51,0,8,4.1,8,8.86V105h-6.7V56.91c0-3.13-1.19-5.4-4.22-5.4s-4.64,3-4.64,5.4V105h-6.7Z"/><path class="cls-1" d="M139,56.22c0-9,5.41-11.35,11.13-11.35s11.13,2.38,11.13,11.35v37.5c0,9-5.4,11.34-11.13,11.34S139,102.68,139,93.72Zm15.56,0c0-4.32-1.73-5.94-4.43-5.94s-4.43,1.62-4.43,5.94v37.5c0,4.32,1.73,5.94,4.43,5.94s4.43-1.62,4.43-5.94Z"/><path class="cls-1" d="M202.37,38.28l6.7-2.59V46.17h4.76v5.4h-4.76V96.31c0,2.7,1.41,3.35,3.35,3.35h1.41v5.4h-3.24c-5.62,0-8.22-2.7-8.22-7.24V51.57H199v-5.4h3.35Z"/><path class="cls-1" d="M219.34,56.22c0-9,5.4-11.35,11.12-11.35s11.13,2.38,11.13,11.35v37.5c0,9-5.4,11.34-11.13,11.34s-11.12-2.38-11.12-11.34Zm15.55,0c0-4.32-1.72-5.94-4.43-5.94S226,51.9,226,56.22v37.5c0,4.32,1.72,5.94,4.42,5.94s4.43-1.62,4.43-5.94Z"/><circle class="cls-1" cx="181.19" cy="96.05" r="8.94"/></svg>