<svg id="Calque_1" data-name="Calque 1" xmlns="http://www.w3.org/2000/svg" viewBox="0 0 277.02 180.7"><defs><style>.cls-1{fill:#fff;}</style></defs><title>logo-baseline-blanc_Plan de travail 1</title><path class="cls-1" d="M35.1,46.25h6.27v4h.22c2-3,4.21-4.64,7.78-4.64a7.24,7.24,0,0,1,6.26,3.67c1.84-2.27,4-3.67,6.92-3.67,5.51,0,8,4.1,8,8.86v50.68h-6.7V56.74c0-3.25-.87-5.08-3.35-5.08-2.71,0-4.33,2.48-4.33,5.4v48.09h-6.7V56.74c0-3.25-.86-5.08-3.35-5.08-2.7,0-4.32,2.48-4.32,5.4v48.09H35.1Z"/><path class="cls-1" d="M94.21,56c0-3.57-1.19-5-3.89-5C86.53,51,86,53.28,86,56.74v5.51h-6.7V55.33c0-6,5.08-9.72,11.24-9.72,6.49,0,10.38,2.7,10.38,10.26v49.28H94.64V102h-.22a8.85,8.85,0,0,1-7.78,3.78c-5.19,0-8-3.78-8-9.72v-16c0-7.35,5-11.35,15.56-11.35Zm0,18.15c-3.46,0-8.86,1.41-8.86,6.38v13.4c0,4.21.64,6.48,4.21,6.48,2.92,0,4.65-2.16,4.65-6Z"/><path class="cls-1" d="M108.68,46.25H115v4h.22A9.32,9.32,0,0,1,123,45.61c5.51,0,8,4.1,8,8.86v50.68h-6.7V57.06c0-3.13-1.19-5.4-4.21-5.4s-4.65,3-4.65,5.4v48.09h-6.7Z"/><path class="cls-1" d="M138.72,56.37c0-9,5.4-11.35,11.13-11.35S161,47.4,161,56.37v37.5c0,9-5.4,11.34-11.13,11.34s-11.13-2.38-11.13-11.34Zm15.56,0c0-4.32-1.73-5.94-4.43-5.94s-4.43,1.62-4.43,5.94v37.5c0,4.32,1.73,5.94,4.43,5.94s4.43-1.62,4.43-5.94Z"/><path class="cls-1" d="M202.14,38.43l6.7-2.59V46.32h4.76v5.4h-4.76V96.46c0,2.7,1.41,3.35,3.35,3.35h1.41v5.4h-3.24c-5.62,0-8.22-2.7-8.22-7.24V51.72h-3.35v-5.4h3.35Z"/><path class="cls-1" d="M219.11,56.37c0-9,5.4-11.35,11.13-11.35s11.13,2.38,11.13,11.35v37.5c0,9-5.41,11.34-11.13,11.34s-11.13-2.38-11.13-11.34Zm15.56,0c0-4.32-1.73-5.94-4.43-5.94s-4.43,1.62-4.43,5.94v37.5c0,4.32,1.72,5.94,4.43,5.94s4.43-1.62,4.43-5.94Z"/><circle class="cls-1" cx="180.96" cy="96.2" r="8.94"/><path class="cls-1" d="M41.82,132.16c0-2-1-2.58-1.72-2.58-1.55,0-2.61.74-2.61,4.13,0,4,.52,5.49,2.61,5.49.47,0,1.87-.49,1.79-2.73H44c.07,3.49-2.53,4.38-3.91,4.38-2.63,0-4.72-.79-4.72-6.27,0-3.65.41-6.65,4.72-6.65,2.48,0,3.93,1.45,3.81,4.23Z"/><path class="cls-1" d="M49.71,130.05h0c.84-1.9,1.87-2.12,3.84-2.12V130l-.54-.07a4.51,4.51,0,0,0-.54,0c-2.24,0-2.81,1.7-2.81,3.37v7.33h-2V128.18h2Z"/><path class="cls-1" d="M57.78,135c0,3.47.93,4.16,2.51,4.16a2.23,2.23,0,0,0,2.16-2.36h2.21c0,2.75-1.72,4-4.32,4s-4.73-.79-4.73-6.27c0-3.65.42-6.65,4.73-6.65,3.54,0,4.42,1.95,4.42,6V135Zm4.84-1.52c0-3.62-1-4.06-2.48-4.06-1.28,0-2.34.61-2.36,4.06Zm.5-10.68-3.23,3.47H58.25l2.18-3.47Z"/><path class="cls-1" d="M74.5,138.81h0a3,3,0,0,1-3.12,2c-2.64,0-3.4-1.7-3.4-4.09,0-3.76,3.69-3.93,6.52-3.86,0-1.65.07-3.44-2.09-3.44a1.83,1.83,0,0,0-1.94,2.21H68.23c.1-2.78,1.57-3.74,4.2-3.74,3.2,0,4,1.65,4,3.74v6a20.71,20.71,0,0,0,.24,2.95H74.5ZM70,136.91c0,1.21.59,2.29,1.94,2.29s2.76-.76,2.56-4.77C72.53,134.45,70,134.28,70,136.91Z"/><path class="cls-1" d="M80.62,128.18v-2.39l2-.91v3.3h2.7v1.52h-2.7v7.61c0,.78,0,1.79,1.84,1.79.15,0,.47,0,.91-.1v1.55c-.66,0-1.33.2-2,.2-1.92,0-2.78-.79-2.78-2.21V129.7h-2v-1.52Z"/><path class="cls-1" d="M87.06,122.84h2.27V125H87.06ZM89.2,140.6h-2V128.18h2Z"/><path class="cls-1" d="M92.35,134.58c0-3.65.42-6.65,4.72-6.65s4.72,3,4.72,6.65c0,5.48-2.09,6.27-4.72,6.27S92.35,140.06,92.35,134.58Zm7.33-.87c0-3.39-1.06-4.13-2.61-4.13s-2.61.74-2.61,4.13c0,4,.52,5.49,2.61,5.49S99.68,137.75,99.68,133.71Z"/><path class="cls-1" d="M111.73,140.6V132c0-1.33-.47-2.41-2.19-2.41-2.21,0-2.54,2-2.54,3.67v7.35h-2v-9.84c0-.86,0-1.72-.12-2.58H107v1.6h.1a3.29,3.29,0,0,1,3.32-1.85c2.66,0,3.32,1.6,3.32,4.06v8.61Z"/><path class="cls-1" d="M121,140.85c-2.68,0-4.36-1.18-4.28-4H119c0,.72,0,2.39,2.06,2.39,1.21,0,2.14-.62,2.14-1.89,0-2.22-6.2-2.27-6.2-6,0-1.31.79-3.4,4.28-3.4,2.22,0,4.11,1.06,3.94,3.52h-2.24a1.74,1.74,0,0,0-1.94-2,1.7,1.7,0,0,0-1.92,1.67c0,2.19,6.2,2.14,6.2,5.93C125.28,139.79,123.41,140.85,121,140.85Z"/><path class="cls-1" d="M140.23,128.18h2v13.68c0,2.77-1.84,3.44-4.57,3.44-2.07,0-3.94-1-3.76-3.32h2.26a1.73,1.73,0,0,0,1.89,1.79,2,2,0,0,0,2.17-2.14v-2.58h-.08a3.08,3.08,0,0,1-2.73,1.55c-3.37,0-4-2.9-4-6.59,0-5.71,2.88-6.08,3.89-6.08a3,3,0,0,1,2.9,1.77h0Zm-2.36,1.43c-2.29,0-2.37,2.75-2.37,4.4,0,4,.92,4.92,2.42,4.92,2.43,0,2.36-2.88,2.36-4.6S140.4,129.61,137.87,129.61Z"/><path class="cls-1" d="M148.05,130.05h0c.83-1.9,1.86-2.12,3.83-2.12V130l-.54-.07a4.32,4.32,0,0,0-.54,0c-2.24,0-2.8,1.7-2.8,3.37v7.33h-2V128.18h2Z"/><path class="cls-1" d="M160.54,138.81h0a3,3,0,0,1-3.12,2c-2.64,0-3.4-1.7-3.4-4.09,0-3.76,3.69-3.93,6.52-3.86,0-1.65.07-3.44-2.09-3.44a1.83,1.83,0,0,0-1.94,2.21h-2.19c.09-2.78,1.57-3.74,4.2-3.74,3.2,0,4,1.65,4,3.74v6a20.71,20.71,0,0,0,.24,2.95h-2.21Zm-4.55-1.9c0,1.21.59,2.29,1.94,2.29s2.76-.76,2.56-4.77C158.57,134.45,156,134.28,156,136.91Z"/><path class="cls-1" d="M168.63,129.66h.05a3.08,3.08,0,0,1,2.85-1.73c2,0,4,.79,4,6.25,0,3.1-.1,6.67-4.11,6.67a3.16,3.16,0,0,1-2.73-1.5h-.07v6h-2V128.18h2Zm4.79,4.52c0-1.87,0-4.6-2.53-4.6s-2.26,3.45-2.26,5.34c0,1.65.1,4.28,2.33,4.28S173.42,137.5,173.42,134.18Z"/><path class="cls-1" d="M185.47,140.6v-8.41c0-1.53-.49-2.61-2.21-2.61-2,0-2.53,1.63-2.53,3.72v7.3h-2V122.84h2v6.94h.09a3.29,3.29,0,0,1,3.37-1.85c2.12,0,3.3,1.06,3.3,3.87v8.8Z"/><path class="cls-1" d="M190.86,122.84h2.26V125h-2.26ZM193,140.6h-2V128.18h2Z"/><path class="cls-1" d="M203.05,128.18h2V145.3h-2v-6H203a3.16,3.16,0,0,1-2.73,1.5c-4,0-4.11-3.57-4.11-6.67,0-5.46,2-6.25,4-6.25a3.06,3.06,0,0,1,2.85,1.73h.05Zm0,6.74c0-1.89.23-5.29-2.26-5.29s-2.53,2.68-2.53,4.55c0,3.32.29,5,2.46,5S203.05,136.57,203.05,134.92Z"/><path class="cls-1" d="M215.42,128.18h2V138c0,.86.05,1.72.12,2.58h-2.14v-1.5h-.07a3.58,3.58,0,0,1-3.15,1.75c-2.16,0-3.34-1.09-3.34-3.2v-9.47h2v8.61c0,1.5.69,2.51,2.12,2.51,1.08,0,2.43-.81,2.43-2.88Z"/><path class="cls-1" d="M223.05,135c0,3.47.93,4.16,2.5,4.16a2.24,2.24,0,0,0,2.17-2.36h2.21c0,2.75-1.72,4-4.33,4s-4.72-.79-4.72-6.27c0-3.65.42-6.65,4.72-6.65,3.54,0,4.43,1.95,4.43,6V135Zm4.84-1.52c0-3.62-1-4.06-2.48-4.06-1.28,0-2.34.61-2.36,4.06Z"/><path class="cls-1" d="M237,140.85c-2.68,0-4.36-1.18-4.28-4H235c0,.72,0,2.39,2.07,2.39,1.21,0,2.14-.62,2.14-1.89,0-2.22-6.2-2.27-6.2-6,0-1.31.79-3.4,4.28-3.4,2.22,0,4.11,1.06,3.94,3.52H239a1.75,1.75,0,0,0-1.94-2,1.7,1.7,0,0,0-1.92,1.67c0,2.19,6.2,2.14,6.2,5.93C241.37,139.79,239.5,140.85,237,140.85Z"/></svg>