<svg id="Calque_1" data-name="Calque 1" xmlns="http://www.w3.org/2000/svg" viewBox="0 0 277.02 141.9"><defs><style>.cls-1{fill:#fff;}</style></defs><title>logo-blanc</title><path class="cls-1" d="M35.4,46.15h6.26v4h.22c2-3,4.22-4.64,7.78-4.64a7.25,7.25,0,0,1,6.27,3.67c1.84-2.27,4-3.67,6.91-3.67,5.51,0,8,4.1,8,8.86V105h-6.7V56.63c0-3.24-.86-5.07-3.35-5.07-2.7,0-4.32,2.48-4.32,5.4V105h-6.7V56.63c0-3.24-.87-5.07-3.35-5.07-2.7,0-4.32,2.48-4.32,5.4V105H35.4Z"/><path class="cls-1" d="M94.5,55.88c0-3.57-1.19-5-3.89-5-3.78,0-4.32,2.27-4.32,5.72v5.52h-6.7V55.23c0-6,5.08-9.72,11.24-9.72,6.48,0,10.37,2.7,10.37,10.26V105H94.93v-3.13h-.21a8.88,8.88,0,0,1-7.79,3.78c-5.18,0-8-3.78-8-9.72V80c0-7.34,5-11.34,15.56-11.34ZM94.5,74c-3.46,0-8.86,1.41-8.86,6.38v13.4c0,4.21.65,6.48,4.21,6.48,2.92,0,4.65-2.16,4.65-6.05Z"/><path class="cls-1" d="M109,46.15h6.27v4h.22a9.32,9.32,0,0,1,7.78-4.64c5.51,0,8,4.1,8,8.86V105h-6.7V57c0-3.13-1.18-5.4-4.21-5.4s-4.65,3-4.65,5.4V105H109Z"/><path class="cls-1" d="M139,56.27c0-9,5.4-11.35,11.13-11.35s11.13,2.38,11.13,11.35V93.76c0,9-5.4,11.35-11.13,11.35S139,102.73,139,93.76Zm15.56,0c0-4.32-1.73-5.94-4.43-5.94s-4.43,1.62-4.43,5.94V93.76c0,4.33,1.73,5.95,4.43,5.95s4.43-1.62,4.43-5.95Z"/><path class="cls-1" d="M202.43,38.33l6.7-2.59V46.22h4.76v5.4h-4.76V96.36c0,2.7,1.41,3.35,3.35,3.35h1.41v5.4h-3.25c-5.62,0-8.21-2.7-8.21-7.24V51.62h-3.35v-5.4h3.35Z"/><path class="cls-1" d="M219.39,56.27c0-9,5.41-11.35,11.13-11.35s11.13,2.38,11.13,11.35V93.76c0,9-5.4,11.35-11.13,11.35s-11.13-2.38-11.13-11.35Zm15.56,0c0-4.32-1.73-5.94-4.43-5.94s-4.43,1.62-4.43,5.94V93.76c0,4.33,1.73,5.95,4.43,5.95S235,98.09,235,93.76Z"/><circle class="cls-1" cx="181.25" cy="96.1" r="8.94"/></svg>